# xmcd
# Copyright (C) 1995-1998 Ti Kan
#
# Track frame offsets:
#       183
#       21320
#       41245
#       60470
#       80765
#       103430
#       125955
#       148053
#       166125
#       185775
#
# Disc length: 2772 seconds
#
# Revision: 0
# Processed by: cddbd v1.4PL0 Copyright (c) Steve Scherf et al.
# Submitted via: CD-Transfer v1.0
#
DISCID=9c0ad20a
DTITLE=Marie Louise Werth - M.l. Werth, C. Lewinsky, R. Mascetti
DYEAR=92
DGENRE=
TTITLE0=Vuler Posseder (Ich Will Dich)
TTITLE1=Tu's Lieber Gleich
TTITLE2=Ti Eis Ida (Du Bist Gegangen)
TTITLE3=Und Draussen Zieht Die Welt Vorbei
TTITLE4=Domani (Morgen)
TTITLE5=Ein Altes Kind
TTITLE6=Mo Inaga (Du Lebst Nur Einmal)
TTITLE7=Herzklopfen
TTITLE8=Giavischs (Wünsche)
TTITLE9=Falsche Töne
EXTD=
EXTT0=
EXTT1=
EXTT2=
EXTT3=
EXTT4=
EXTT5=
EXTT6=
EXTT7=
EXTT8=
EXTT9=
PLAYORDER=
